{"asset":{"version":"2.0","generator":"Blockbench 5.0.7 glTF exporter"},"scenes":[{"nodes":[3,5,12,19,26,33],"name":"blockbench_export"}],"scene":0,"nodes":[{"translation":[-0.001151875,-1.526938125,-0.005260625],"name":"Neck","mesh":0},{"translation":[-0.002304375,-1.5875,-0.031291875],"name":"Head","mesh":1},{"rotation":[0,0,0.2798290140309921,0.9600498543859287],"translation":[0.0011525,0.060561874999999876,0.02603125],"name":"Head","children":[1]},{"translation":[0.001151875,1.526938125,0.005260625],"name":"Neck","children":[0,2]},{"name":"Torso","mesh":2},{"name":"Torso","children":[4]},{"translation":[0.215415,-1.4375,0],"name":"RightArmUpper","mesh":3},{"translation":[0.40625,-1.28125,0],"name":"RightArmLower","mesh":4},{"translation":[0.6375,-1.14375,0],"name":"RightArmHand","mesh":5},{"translation":[-0.23124999999999996,-0.13749999999999996,0],"name":"RightArmHand","children":[8]},{"translation":[-0.190835,-0.15625,0],"name":"RightArmLower","children":[7,9]},{"translation":[-0.034585000000000005,0,0],"name":"RightArmUpper","children":[6,10]},{"rotation":[0,0,0.3826834323650898,0.9238795325112867],"translation":[-0.18083,1.4375,0],"name":"RightArm","children":[11]},{"translation":[-0.650913125,-1.14594375,0.005336875],"name":"LeftArmHand","mesh":6},{"translation":[0.225913125,-0.12280625,0.00075625],"name":"LeftArmHand","children":[13]},{"translation":[-0.425,-1.26875,0.006093125],"name":"LeftArmLower","mesh":7},{"translation":[0.2375,-0.163270625,0.0029275000000000013],"name":"LeftArmLower","children":[14,15]},{"translation":[-0.1875,-1.432020625,0.009020625],"name":"LeftArmUpper","mesh":8},{"translation":[0,-0.005479374999999953,-0.009020625],"name":"LeftArmUpper","children":[16,17]},{"rotation":[0,0,-0.3826834323650898,0.9238795325112867],"translation":[0.1875,1.4375,0],"name":"LeftArm","children":[18]},{"translation":[0.113365,-0.89425375,-0.0059275],"name":"RightLegUpper","mesh":9},{"translation":[0.125,-0.5,0],"name":"RightLegLower","mesh":10},{"translation":[0.1875,-0.0625,0],"name":"RightLegFeet","mesh":11},{"translation":[-0.0625,-0.4375,0],"name":"RightLegFeet","children":[22]},{"translation":[-0.011635000000000006,-0.39425374999999996,-0.0059275],"name":"RightLegLower","children":[21,23]},{"translation":[-0.050864999999999994,0.01925374999999996,0.0059275],"name":"RightLegUpper","children":[20,24]},{"translation":[-0.0625,0.875,0],"name":"RightLeg","children":[25]},{"translation":[-0.056545,-0.887833125,-0.00538875],"name":"LeftLegUpper","mesh":12},{"translation":[-0.1334775,-0.489584375,-0.0019525],"name":"LeftLegLower","mesh":13},{"translation":[-0.17044875,-0.094475625,-0.038125],"name":"LeftLegFeet","mesh":14},{"translation":[0.03697125000000001,-0.39510875,0.036172499999999996],"name":"LegLegFeet","children":[29]},{"translation":[0.0769325,-0.39824875,-0.00343625],"name":"LeftLegLower","children":[28,30]},{"translation":[0.056545,0.887833125,0.00538875],"name":"LeftLegUpper","children":[27,31]},{"name":"LeftLeg","children":[32]}],"bufferViews":[{"buffer":0,"byteOffset":0,"byteLength":576,"target":34962,"byteStride":12},{"buffer":0,"byteOffset":576,"byteLength":576,"target":34962,"byteStride":12},{"buffer":0,"byteOffset":1152,"byteLength":384,"target":34962,"byteStride":8},{"buffer":0,"byteOffset":1536,"byteLength":96,"target":34963},{"buffer":0,"byteOffset":1632,"byteLength":2232,"target":34962,"byteStride":12},{"buffer":0,"byteOffset":3864,"byteLength":2232,"target":34962,"byteStride":12},{"buffer":0,"byteOffset":6096,"byteLength":1488,"target":34962,"byteStride":8},{"buffer":0,"byteOffset":7584,"byteLength":372,"target":34963},{"buffer":0,"byteOffset":7956,"byteLength":2880,"target":34962,"byteStride":12},{"buffer":0,"byteOffset":10836,"byteLength":2880,"target":34962,"byteStride":12},{"buffer":0,"byteOffset":13716,"byteLength":1920,"target":34962,"byteStride":8},{"buffer":0,"byteOffset":15636,"byteLength":480,"target":34963},{"buffer":0,"byteOffset":16116,"byteLength":552,"target":34962,"byteStride":12},{"buffer":0,"byteOffset":16668,"byteLength":552,"target":34962,"byteStride":12},{"buffer":0,"byteOffset":17220,"byteLength":368,"target":34962,"byteStride":8},{"buffer":0,"byteOffset":17588,"byteLength":96,"target":34963},{"buffer":0,"byteOffset":17684,"byteLength":576,"target":34962,"byteStride":12},{"buffer":0,"byteOffset":18260,"byteLength":576,"target":34962,"byteStride":12},{"buffer":0,"byteOffset":18836,"byteLength":384,"target":34962,"byteStride":8},{"buffer":0,"byteOffset":19220,"byteLength":96,"target":34963},{"buffer":0,"byteOffset":19316,"byteLength":1272,"target":34962,"byteStride":12},{"buffer":0,"byteOffset":20588,"byteLength":1272,"target":34962,"byteStride":12},{"buffer":0,"byteOffset":21860,"byteLength":848,"target":34962,"byteStride":8},{"buffer":0,"byteOffset":22708,"byteLength":216,"target":34963},{"buffer":0,"byteOffset":22924,"byteLength":1224,"target":34962,"byteStride":12},{"buffer":0,"byteOffset":24148,"byteLength":1224,"target":34962,"byteStride":12},{"buffer":0,"byteOffset":25372,"byteLength":816,"target":34962,"byteStride":8},{"buffer":0,"byteOffset":26188,"byteLength":204,"target":34963},{"buffer":0,"byteOffset":26392,"byteLength":504,"target":34962,"byteStride":12},{"buffer":0,"byteOffset":26896,"byteLength":504,"target":34962,"byteStride":12},{"buffer":0,"byteOffset":27400,"byteLength":336,"target":34962,"byteStride":8},{"buffer":0,"byteOffset":27736,"byteLength":84,"target":34963},{"buffer":0,"byteOffset":27820,"byteLength":576,"target":34962,"byteStride":12},{"buffer":0,"byteOffset":28396,"byteLength":576,"target":34962,"byteStride":12},{"buffer":0,"byteOffset":28972,"byteLength":384,"target":34962,"byteStride":8},{"buffer":0,"byteOffset":29356,"byteLength":96,"target":34963},{"buffer":0,"byteOffset":29452,"byteLength":468,"target":34962,"byteStride":12},{"buffer":0,"byteOffset":29920,"byteLength":468,"target":34962,"byteStride":12},{"buffer":0,"byteOffset":30388,"byteLength":312,"target":34962,"byteStride":8},{"buffer":0,"byteOffset":30700,"byteLength":80,"target":34963},{"buffer":0,"byteOffset":30780,"byteLength":684,"target":34962,"byteStride":12},{"buffer":0,"byteOffset":31464,"byteLength":684,"target":34962,"byteStride":12},{"buffer":0,"byteOffset":32148,"byteLength":456,"target":34962,"byteStride":8},{"buffer":0,"byteOffset":32604,"byteLength":116,"target":34963},{"buffer":0,"byteOffset":32720,"byteLength":936,"target":34962,"byteStride":12},{"buffer":0,"byteOffset":33656,"byteLength":936,"target":34962,"byteStride":12},{"buffer":0,"byteOffset":34592,"byteLength":624,"target":34962,"byteStride":8},{"buffer":0,"byteOffset":35216,"byteLength":156,"target":34963},{"buffer":0,"byteOffset":35372,"byteLength":576,"target":34962,"byteStride":12},{"buffer":0,"byteOffset":35948,"byteLength":576,"target":34962,"byteStride":12},{"buffer":0,"byteOffset":36524,"byteLength":384,"target":34962,"byteStride":8},{"buffer":0,"byteOffset":36908,"byteLength":96,"target":34963},{"buffer":0,"byteOffset":37004,"byteLength":576,"target":34962,"byteStride":12},{"buffer":0,"byteOffset":37580,"byteLength":576,"target":34962,"byteStride":12},{"buffer":0,"byteOffset":38156,"byteLength":384,"target":34962,"byteStride":8},{"buffer":0,"byteOffset":38540,"byteLength":96,"target":34963},{"buffer":0,"byteOffset":38636,"byteLength":936,"target":34962,"byteStride":12},{"buffer":0,"byteOffset":39572,"byteLength":936,"target":34962,"byteStride":12},{"buffer":0,"byteOffset":40508,"byteLength":624,"target":34962,"byteStride":8},{"buffer":0,"byteOffset":41132,"byteLength":156,"target":34963},{"buffer":0,"byteOffset":41288,"byteLength":124},{"buffer":0,"byteOffset":41412,"byteLength":496},{"buffer":0,"byteOffset":41908,"byteLength":124},{"buffer":0,"byteOffset":42032,"byteLength":496}],"buffers":[{"byteLength":42528,"uri":"data:application/octet-stream;base64,"}],"accessors":[{"bufferView":0,"componentType":5126,"count":48,"max":[0.0775037482380867,1.5909193754196167,0.07493499666452408],"min":[-0.07289562374353409,1.506772518157959,-0.059677500277757645],"type":"VEC3"},{"bufferView":1,"componentType":5126,"count":48,"max":[0.9680414795875549,0.3910927176475525,0.9478451013565063],"min":[-0.9680439233779907,-0.1077190563082695,-0.9226807951927185],"type":"VEC3"},{"bufferView":2,"componentType":5126,"count":48,"max":[0.272868812084198,0.5915681719779968],"min":[0.18771366775035858,0.4751913547515869],"type":"VEC2"},{"bufferView":3,"componentType":5123,"count":48,"max":[47],"min":[0],"type":"SCALAR"},{"bufferView":4,"componentType":5126,"count":186,"max":[0.08339187502861023,1.7999187707901,0.13173875212669373],"min":[-0.07878375053405762,1.5677356719970703,-0.07447499781847],"type":"VEC3"},{"bufferView":5,"componentType":5126,"count":186,"max":[0.9861133098602295,0.9439033269882202,0.9718057513237],"min":[-0.9861145615577698,-0.9860535860061646,-0.9711247086524963],"type":"VEC3"},{"bufferView":6,"componentType":5126,"count":186,"max":[0.3134765625,0.57275390625],"min":[0.1631917953491211,0.3740234375],"type":"VEC2"},{"bufferView":7,"componentType":5123,"count":186,"max":[185],"min":[0],"type":"SCALAR"},{"bufferView":8,"componentType":5126,"count":240,"max":[0.20767062902450562,1.532751202583313,0.15079499781131744],"min":[-0.203062504529953,0.8352068662643433,-0.10560937225818634],"type":"VEC3"},{"bufferView":9,"componentType":5126,"count":240,"max":[0.9582962989807129,0.9716950058937073,0.9966669082641602],"min":[-0.9582962989807129,-0.7690553665161133,-0.9924850463867188],"type":"VEC3"},{"bufferView":10,"componentType":5126,"count":240,"max":[0.29967164993286133,0.5549837946891785],"min":[0.15320132672786713,0.3694356679916382],"type":"VEC2"},{"bufferView":11,"componentType":5123,"count":240,"max":[239],"min":[0],"type":"SCALAR"},{"bufferView":12,"componentType":5126,"count":46,"max":[-0.39907562732696533,1.3187105655670166,0.038283124566078186],"min":[-0.6489412784576416,1.128672480583191,-0.06890875101089478],"type":"VEC3"},{"bufferView":13,"componentType":5126,"count":46,"max":[0.9051408767700195,0.755908191204071,0.6981562376022339],"min":[-0.5518178343772888,-0.7716113924980164,-0.795758843421936],"type":"VEC3"},{"bufferView":14,"componentType":5126,"count":46,"max":[0.8126441836357117,0.8175061941146851],"min":[0.689453125,0.69140625],"type":"VEC2"},{"bufferView":15,"componentType":5123,"count":48,"max":[45],"min":[0],"type":"SCALAR"},{"bufferView":16,"componentType":5126,"count":48,"max":[-0.14726687967777252,1.4984110593795776,0.08577687293291092],"min":[-0.4313943684101105,1.2544786930084229,-0.09856750071048737],"type":"VEC3"},{"bufferView":17,"componentType":5126,"count":48,"max":[0.5683615207672119,0.7583620548248291,0.7300361394882202],"min":[-0.5996779203414917,-0.8635419607162476,-0.8025664687156677],"type":"VEC3"},{"bufferView":18,"componentType":5126,"count":48,"max":[0.8430573344230652,0.76624596118927],"min":[0.6978674530982971,0.696202278137207],"type":"VEC2"},{"bufferView":19,"componentType":5123,"count":48,"max":[47],"min":[0],"type":"SCALAR"},{"bufferView":20,"componentType":5126,"count":106,"max":[-0.6225318908691406,1.1694899797439575,0.0540468767285347],"min":[-0.8032631278038025,1.009881854057312,-0.06780437380075455],"type":"VEC3"},{"bufferView":21,"componentType":5126,"count":106,"max":[0.8377540111541748,0.7397594451904297,0.8940788507461548],"min":[-0.8553617000579834,-0.9716623425483704,-0.8740172982215881],"type":"VEC3"},{"bufferView":22,"componentType":5126,"count":106,"max":[0.8386781215667725,0.8692982792854309],"min":[0.689453125,0.69140625],"type":"VEC2"},{"bufferView":23,"componentType":5123,"count":108,"max":[105],"min":[0],"type":"SCALAR"},{"bufferView":24,"componentType":5126,"count":102,"max":[0.8078712224960327,1.1694899797439575,0.0540468767285347],"min":[0.6271399855613708,1.009881854057312,-0.06780437380075455],"type":"VEC3"},{"bufferView":25,"componentType":5126,"count":102,"max":[0.855365514755249,0.7397594451904297,0.8940779566764832],"min":[-0.8222377896308899,-0.9716622829437256,-0.8740191459655762],"type":"VEC3"},{"bufferView":26,"componentType":5126,"count":102,"max":[0.8223989009857178,0.8633673787117004],"min":[0.6685482263565063,0.816718578338623],"type":"VEC2"},{"bufferView":27,"componentType":5123,"count":102,"max":[101],"min":[0],"type":"SCALAR"},{"bufferView":28,"componentType":5126,"count":42,"max":[0.6535493731498718,1.3187105655670166,0.038283124566078186],"min":[0.4036843776702881,1.128672480583191,-0.06890875101089478],"type":"VEC3"},{"bufferView":29,"componentType":5126,"count":42,"max":[0.5518178343772888,0.755907416343689,0.6981562376022339],"min":[-0.5083966851234436,-0.7716105580329895,-0.795758843421936],"type":"VEC3"},{"bufferView":30,"componentType":5126,"count":42,"max":[0.801605224609375,0.8172856569290161],"min":[0.69746333360672,0.7655689716339111],"type":"VEC2"},{"bufferView":31,"componentType":5123,"count":42,"max":[41],"min":[0],"type":"SCALAR"},{"bufferView":32,"componentType":5126,"count":48,"max":[0.4360024929046631,1.4969531297683716,0.08577687293291092],"min":[0.15187500417232513,1.2544786930084229,-0.09856750071048737],"type":"VEC3"},{"bufferView":33,"componentType":5126,"count":48,"max":[0.5879141092300415,0.7583613991737366,0.7300347089767456],"min":[-0.5683701634407043,-0.8723448514938354,-0.8025652170181274],"type":"VEC3"},{"bufferView":34,"componentType":5126,"count":48,"max":[0.8324794173240662,0.7708523273468018],"min":[0.6616870760917664,0.7074041366577148],"type":"VEC2"},{"bufferView":35,"componentType":5123,"count":48,"max":[47],"min":[0],"type":"SCALAR"},{"bufferView":36,"componentType":5126,"count":39,"max":[0.0023043749388307333,0.9451387524604797,0.11891250312328339],"min":[-0.1749768704175949,0.5094087719917297,-0.07630812376737595],"type":"VEC3"},{"bufferView":37,"componentType":5126,"count":39,"max":[0.8172926306724548,0.15172648429870605,0.6902132034301758],"min":[-0.8182125091552734,-0.20053449273109436,-0.7765334248542786],"type":"VEC3"},{"bufferView":38,"componentType":5126,"count":39,"max":[0.24918459355831146,0.5090234279632568],"min":[0.18611027300357819,0.4396507740020752],"type":"VEC2"},{"bufferView":39,"componentType":5123,"count":39,"max":[38],"min":[0],"type":"SCALAR"},{"bufferView":40,"componentType":5126,"count":57,"max":[-0.06744124740362167,0.5431987643241882,0.07949875295162201],"min":[-0.1942443698644638,0.0828118771314621,-0.06298437714576721],"type":"VEC3"},{"bufferView":41,"componentType":5126,"count":57,"max":[0.8935477137565613,0.20126846432685852,0.7253815531730652],"min":[-0.8124603629112244,-0.24951830506324768,-0.7764335870742798],"type":"VEC3"},{"bufferView":42,"componentType":5126,"count":57,"max":[0.22999659180641174,0.5706830620765686],"min":[0.18779140710830688,0.5007520318031311],"type":"VEC2"},{"bufferView":43,"componentType":5123,"count":57,"max":[56],"min":[0],"type":"SCALAR"},{"bufferView":44,"componentType":5126,"count":78,"max":[-0.1232643723487854,0.0828118771314621,0.1805843710899353],"min":[-0.2292337566614151,-0.00011125000310130417,-0.0684337466955185],"type":"VEC3"},{"bufferView":45,"componentType":5126,"count":78,"max":[0.9988791942596436,0.9129355549812317,0.7205830216407776],"min":[-0.9688470959663391,-1,-0.8677527904510498],"type":"VEC3"},{"bufferView":46,"componentType":5126,"count":78,"max":[0.3196415901184082,0.5488359332084656],"min":[0.2892635762691498,0.4996277093887329],"type":"VEC2"},{"bufferView":47,"componentType":5123,"count":78,"max":[77],"min":[0],"type":"SCALAR"},{"bufferView":48,"componentType":5126,"count":48,"max":[0.1873600035905838,0.9451387524604797,0.11891250312328339],"min":[0.0023043749388307333,0.5094087719917297,-0.07630812376737595],"type":"VEC3"},{"bufferView":49,"componentType":5126,"count":48,"max":[0.8182125091552734,0.20126934349536896,0.6902152299880981],"min":[-0.8172926306724548,-0.2005329430103302,-0.7765334844589233],"type":"VEC3"},{"bufferView":50,"componentType":5126,"count":48,"max":[0.30025503039360046,0.6007664203643799],"min":[0.2769106924533844,0.5412287712097168],"type":"VEC2"},{"bufferView":51,"componentType":5123,"count":48,"max":[47],"min":[0],"type":"SCALAR"},{"bufferView":52,"componentType":5126,"count":48,"max":[0.19885249435901642,0.5109131336212158,0.07949875295162201],"min":[0.07204937189817429,0.0828118771314621,-0.06298437714576721],"type":"VEC3"},{"bufferView":53,"componentType":5126,"count":48,"max":[0.8124634027481079,0.1996355801820755,0.7253815531730652],"min":[-0.893547534942627,-0.2495187371969223,-0.7696148157119751],"type":"VEC3"},{"bufferView":54,"componentType":5126,"count":48,"max":[0.28939008712768555,0.5433892011642456],"min":[0.27871960401535034,0.498046875],"type":"VEC2"},{"bufferView":55,"componentType":5123,"count":48,"max":[47],"min":[0],"type":"SCALAR"},{"bufferView":56,"componentType":5126,"count":78,"max":[0.23384250700473785,0.0828118771314621,0.1805843710899353],"min":[0.127872496843338,-0.00011125000310130417,-0.0684337466955185],"type":"VEC3"},{"bufferView":57,"componentType":5126,"count":78,"max":[0.9688470959663391,0.9129353165626526,0.7205854654312134],"min":[-0.9988786578178406,-1,-0.8677527904510498],"type":"VEC3"},{"bufferView":58,"componentType":5126,"count":78,"max":[0.31501996517181396,0.5756984949111938],"min":[0.3042222559452057,0.5395181179046631],"type":"VEC2"},{"bufferView":59,"componentType":5123,"count":78,"max":[77],"min":[0],"type":"SCALAR"},{"bufferView":60,"componentType":5126,"count":31,"max":[1.625],"min":[0],"type":"SCALAR"},{"bufferView":61,"componentType":5126,"count":31,"max":[0,0,0.40274667739868164,0.9238795042037964],"min":[0,0,0.3826834261417389,0.9153114557266235],"type":"VEC4"},{"bufferView":62,"componentType":5126,"count":31,"max":[1.625],"min":[0],"type":"SCALAR"},{"bufferView":63,"componentType":5126,"count":31,"max":[0,0,-0.3826834261417389,0.9238795042037964],"min":[0,0,-0.40274667739868164,0.9153114557266235],"type":"VEC4"}],"materials":[{"pbrMetallicRoughness":{"metallicFactor":0,"roughnessFactor":1,"baseColorTexture":{"index":0}},"alphaMode":"MASK","alphaCutoff":0.05,"doubleSided":true},{"pbrMetallicRoughness":{"metallicFactor":0,"roughnessFactor":1,"baseColorTexture":{"index":1}},"alphaMode":"MASK","alphaCutoff":0.05,"doubleSided":true}],"textures":[{"sampler":0,"source":0,"name":"Untitled design.png"},{"sampler":1,"source":1,"name":"Untitled design (1).png"}],"samplers":[{"magFilter":9728,"minFilter":9728,"wrapS":10497,"wrapT":10497},{"magFilter":9728,"minFilter":9728,"wrapS":10497,"wrapT":10497}],"images":[{"mimeType":"image/png","uri":"data:image/png;base64,"},{"mimeType":"image/png","uri":"data:image/png;base64,"}],"meshes":[{"primitives":[{"mode":4,"attributes":{"POSITION":0,"NORMAL":1,"TEXCOORD_0":2},"indices":3,"material":0}]},{"primitives":[{"mode":4,"attributes":{"POSITION":4,"NORMAL":5,"TEXCOORD_0":6},"indices":7,"material":0}]},{"primitives":[{"mode":4,"attributes":{"POSITION":8,"NORMAL":9,"TEXCOORD_0":10},"indices":11,"material":0}]},{"primitives":[{"mode":4,"attributes":{"POSITION":12,"NORMAL":13,"TEXCOORD_0":14},"indices":15,"material":1}]},{"primitives":[{"mode":4,"attributes":{"POSITION":16,"NORMAL":17,"TEXCOORD_0":18},"indices":19,"material":1}]},{"primitives":[{"mode":4,"attributes":{"POSITION":20,"NORMAL":21,"TEXCOORD_0":22},"indices":23,"material":1}]},{"primitives":[{"mode":4,"attributes":{"POSITION":24,"NORMAL":25,"TEXCOORD_0":26},"indices":27,"material":1}]},{"primitives":[{"mode":4,"attributes":{"POSITION":28,"NORMAL":29,"TEXCOORD_0":30},"indices":31,"material":1}]},{"primitives":[{"mode":4,"attributes":{"POSITION":32,"NORMAL":33,"TEXCOORD_0":34},"indices":35,"material":1}]},{"primitives":[{"mode":4,"attributes":{"POSITION":36,"NORMAL":37,"TEXCOORD_0":38},"indices":39,"material":0}]},{"primitives":[{"mode":4,"attributes":{"POSITION":40,"NORMAL":41,"TEXCOORD_0":42},"indices":43,"material":0}]},{"primitives":[{"mode":4,"attributes":{"POSITION":44,"NORMAL":45,"TEXCOORD_0":46},"indices":47,"material":0}]},{"primitives":[{"mode":4,"attributes":{"POSITION":48,"NORMAL":49,"TEXCOORD_0":50},"indices":51,"material":0}]},{"primitives":[{"mode":4,"attributes":{"POSITION":52,"NORMAL":53,"TEXCOORD_0":54},"indices":55,"material":0}]},{"primitives":[{"mode":4,"attributes":{"POSITION":56,"NORMAL":57,"TEXCOORD_0":58},"indices":59,"material":0}]}],"animations":[{"name":"idle","samplers":[{"input":60,"output":61,"interpolation":"LINEAR"},{"input":62,"output":63,"interpolation":"LINEAR"}],"channels":[{"sampler":0,"target":{"node":12,"path":"rotation"}},{"sampler":1,"target":{"node":19,"path":"rotation"}}]}]}